<svg width="20" height="20" viewBox="0 0 20 20" fill="none" xmlns="http://www.w3.org/2000/svg">
<path fill-rule="evenodd" clip-rule="evenodd" d="M18.6956 10.4541V18.2609C18.6956 18.7411 18.305 19.1304 17.8248 19.1304H14.8426C14.3624 19.1304 13.973 18.7813 13.973 18.3011L13.9726 13.6957H11.9565V18.2609C11.9565 18.7411 11.5508 19.1304 11.0706 19.1304H2.18997C1.70976 19.1304 1.30432 18.7411 1.30432 18.2609V10.4541C1.30432 9.97391 1.69367 9.58456 2.17389 9.58456C2.6541 9.58456 3.04345 9.97391 3.04345 10.4541V17.3913H10.2174V12.7459C10.2174 12.2657 10.5904 11.9565 11.0706 11.9565H14.8421C15.3224 11.9565 15.6521 12.2657 15.6521 12.7459V17.3913H16.9565V10.4541C16.9565 9.97391 17.3458 9.58456 17.8261 9.58456C18.3063 9.58456 18.6956 9.97391 18.6956 10.4541ZM18.2609 6.95654H1.73914V6.05023L3.52631 4.34784H16.4737L18.2609 6.05023V6.95654ZM3.91302 2.82609H16.0869V1.73914H3.91302V2.82609ZM19.7546 5.08087L17.8261 3.12674V0.869565C17.8261 0.389348 17.4241 0 16.9439 0H3.05609C2.57587 0 2.17391 0.389348 2.17391 0.869565V3.12674L0.245435 5.08087C0.0841304 5.2437 0 5.46348 0 5.69261V7.90065C0 8.38087 0.389348 8.69565 0.869565 8.69565H19.1304C19.6107 8.69565 20 8.38087 20 7.90065V5.69261C20 5.46348 19.9159 5.2437 19.7546 5.08087ZM5.86957 13.6956H7.17392V12.3913H5.86957V13.6956ZM8.69567 11.6304C8.69567 11.2102 8.35501 10.8696 7.9348 10.8696H5.10871C4.68849 10.8696 4.34784 11.2102 4.34784 11.6304V14.4565C4.34784 14.8767 4.68849 15.2174 5.10871 15.2174H7.9348C8.35501 15.2174 8.69567 14.8767 8.69567 14.4565V11.6304Z" fill="black"/>
</svg>
